<?xml version="1.0" standalone="no"?>
<!DOCTYPE svg PUBLIC "-//W3C//DTD SVG 20010904//EN"
 "http://www.w3.org/TR/2001/REC-SVG-20010904/DTD/svg10.dtd">
<svg version="1.0" xmlns="http://www.w3.org/2000/svg"
 width="24.000000pt" height="24.000000pt" viewBox="0 0 24.000000 24.000000"
 preserveAspectRatio="xMidYMid meet">

<g transform="translate(0.000000,24.000000) scale(0.100000,-0.100000)"
fill="#000000" stroke="none">
<path d="M75 231 c-37 -16 -48 -37 -34 -63 6 -13 13 -25 15 -26 1 -2 12 6 23
17 17 17 34 21 83 21 l63 0 -26 26 c-28 28 -89 40 -124 25z"/>
<path d="M4 145 c-10 -57 28 -123 82 -139 16 -5 23 0 33 20 12 28 3 43 -24 44
-6 0 -26 25 -44 55 -18 30 -35 55 -37 55 -2 0 -6 -16 -10 -35z"/>
<path d="M84 146 c-3 -8 -4 -25 -2 -38 2 -19 9 -23 38 -23 33 0 35 2 35 35 0
32 -3 35 -33 38 -21 2 -34 -2 -38 -12z"/>
<path d="M176 136 c4 -18 -3 -41 -27 -82 l-32 -57 29 7 c54 14 100 77 92 128
-2 18 -10 24 -36 26 -31 3 -32 2 -26 -22z"/>
</g>
</svg>
