<?xml version="1.0" standalone="no"?>
<!DOCTYPE svg PUBLIC "-//W3C//DTD SVG 20010904//EN"
 "http://www.w3.org/TR/2001/REC-SVG-20010904/DTD/svg10.dtd">
<svg version="1.0" xmlns="http://www.w3.org/2000/svg"
 width="32.000000pt" height="32.000000pt" viewBox="0 0 32.000000 32.000000"
 preserveAspectRatio="xMidYMid meet">

<g transform="translate(0.000000,32.000000) scale(0.100000,-0.100000)"
fill="#000000" stroke="none">
<path d="M95 305 c-54 -29 -58 -37 -39 -79 l18 -36 26 25 c20 19 43 27 99 34
40 5 75 11 77 14 3 3 -9 15 -27 27 -41 30 -114 37 -154 15z"/>
<path d="M10 206 c-22 -68 12 -153 74 -183 34 -16 35 -16 60 13 32 36 32 44 3
44 -30 0 -57 30 -95 104 l-29 60 -13 -38z"/>
<path d="M227 231 c-17 -6 -17 -8 -3 -20 9 -8 16 -29 16 -50 0 -29 -10 -49
-49 -96 -48 -58 -49 -60 -26 -63 35 -5 92 26 121 64 50 65 40 175 -15 173 -14
0 -34 -4 -44 -8z"/>
<path d="M116 204 c-20 -20 -20 -68 0 -88 20 -20 68 -20 88 0 20 20 20 68 0
88 -8 9 -28 16 -44 16 -16 0 -36 -7 -44 -16z m64 -30 c11 -12 10 -18 -3 -32
-16 -15 -18 -15 -34 0 -13 14 -14 20 -3 32 7 9 16 16 20 16 4 0 13 -7 20 -16z"/>
</g>
</svg>
